<?xml version="1.0" encoding="iso-8859-1"?>
<!-- Generator: Adobe Illustrator 19.0.0, SVG Export Plug-In . SVG Version: 6.00 Build 0)  -->
<svg version="1.1" id="Layer_1" xmlns="http://www.w3.org/2000/svg" xmlns:xlink="http://www.w3.org/1999/xlink" x="0px" y="0px"
	 viewBox="0 0 512.035 512.035" style="enable-background:new 0 0 512.035 512.035;" xml:space="preserve">
<g transform="translate(1 1)">
	<path style="fill:#FF0000;" d="M340.351,169.701v214.187l-81.067,116.907c-2.56,2.56-5.973,2.56-7.68,0l-81.92-116.907V33.168
		l81.067,93.867c2.56,2.56,5.973,2.56,7.68,0l81.92-93.867v68.267V169.701z"/>
	<path style="fill:#FF0000;" d="M340.351,36.581v64.853v68.267v214.187l-81.067,116.907c-1.707,0.853-2.56,1.707-4.267,1.707
		c1.707,0,3.413-0.853,5.12-1.707l105.813-116.907V169.701v-68.267V7.568L340.351,36.581z"/>
	<path style="fill:#FFFFFF;" d="M169.684,383.888V36.581l-25.6-29.013v376.32l105.813,116.907c1.707,0.853,3.413,1.707,5.12,1.707
		c-1.707,0-2.56-0.853-4.267-1.707L169.684,383.888z"/>
	<path d="M255.017,511.035c-3.413,0-7.68-0.853-10.24-3.413l-0.853-0.853L138.111,389.861c-1.707-1.707-2.56-4.267-2.56-5.973V7.568
		c0-3.413,2.56-6.827,5.12-7.68c3.413-1.707,7.68-0.853,9.387,1.707l104.96,118.613L359.977,1.595
		c1.707-2.56,5.973-3.413,9.387-1.707c2.56,0.853,5.12,4.267,5.12,7.68v93.867c0,5.12-3.413,8.533-8.533,8.533
		c-5.12,0-8.533-3.413-8.533-8.533v-71.68l-90.453,102.4l-0.853,0.853c-5.973,5.12-14.507,5.12-20.48,0
		c-0.853,0-0.853-0.853-0.853-0.853l-92.16-102.4v350.72l102.4,113.493l102.4-113.493V169.701c0-5.12,3.413-8.533,8.533-8.533
		c5.12,0,8.533,3.413,8.533,8.533v214.187c0,1.707-0.853,4.267-2.56,5.973l-104.96,116.907l-0.853,0.853
		C262.697,510.181,258.431,511.035,255.017,511.035z"/>
	<path d="M365.951,144.101c5.12,0,8.533-3.413,8.533-8.533s-3.413-8.533-8.533-8.533c-5.12,0-8.533,3.413-8.533,8.533
		S360.831,144.101,365.951,144.101"/>
</g>
<g>
</g>
<g>
</g>
<g>
</g>
<g>
</g>
<g>
</g>
<g>
</g>
<g>
</g>
<g>
</g>
<g>
</g>
<g>
</g>
<g>
</g>
<g>
</g>
<g>
</g>
<g>
</g>
<g>
</g>
</svg>
