<?xml version="1.0" encoding="iso-8859-1"?>
<!-- Generator: Adobe Illustrator 19.0.0, SVG Export Plug-In . SVG Version: 6.00 Build 0)  -->
<svg version="1.1" id="Layer_1" xmlns="http://www.w3.org/2000/svg" xmlns:xlink="http://www.w3.org/1999/xlink" x="0px" y="0px"
	 viewBox="0 0 512.009 512.009" style="enable-background:new 0 0 512.009 512.009;" xml:space="preserve">
<g>
	<g>
		<path d="M492.018,298.957c11.981-8.798,20.335-21.316,19.977-36.557c0-37.606-28.561-57.6-76.8-57.6
			c-28.621-0.043-57.395,0.597-85.914-2.15c20.301-43.238,33.169-90.846,34.714-138.65c0-39.748-14.763-64-51.2-64
			c-19.285,0-32.418,11.264-44.467,30.524c-6.076,9.745-30.029,58.692-37.231,71.117c-5.094,8.781-10.214,16.64-15.573,23.791
			c-20.523,24.986-41.054,51.831-69.12,68.762v-2.202c0-7.066-5.734-12.8-12.8-12.8h-140.8c-7.066,0-12.8,5.734-12.8,12.8v307.217
			c0,7.066,5.734,12.8,12.8,12.8h140.8c7.066,0,12.8-5.734,12.8-12.8v-3.482c10.931,2.347,21.973,4.028,33.007,5.845
			C242.17,507.981,290.478,512,332.794,512h76.8c38.118,0,64-22.647,64-57.6c-1.229-16.051,0.375-6.938-6.818-26.931l-0.358-0.512
			c22.767-16.717,23.561-39.902,13.158-63.488l-0.358-0.512c22.767-16.717,23.561-39.902,13.158-63.488L492.018,298.957z
			 M140.803,486.383h-115.2V204.791h115.2V486.383z M460.803,294.391c0,12.8,12.8,12.8,12.8,32s-25.6,19.2-25.6,32
			s12.8,12.8,12.8,32s-25.6,19.2-25.6,32s12.8,12.8,12.8,32s-12.8,32-38.4,32c-25.6,0-76.8,0-76.8,0
			c-55.706-2.065-112.026-3.959-166.4-17.306V224.563l3.669-1.69c33.724-21.965,62.268-49.604,85.922-82.074
			c38.4-51.2,51.2-115.2,76.8-115.2c20.045,0,25.6,12.8,25.609,38.391c0,51.2-24.448,112.896-38.4,140.8
			c-12.8,25.6,25.6,25.6,115.2,25.6c38.4,0,51.2,12.8,51.2,32S460.803,281.591,460.803,294.391z"/>
	</g>
</g>
<g>
</g>
<g>
</g>
<g>
</g>
<g>
</g>
<g>
</g>
<g>
</g>
<g>
</g>
<g>
</g>
<g>
</g>
<g>
</g>
<g>
</g>
<g>
</g>
<g>
</g>
<g>
</g>
<g>
</g>
</svg>
